PathFileType	4	(X/Y/Z)	45_2_69_p1_0-245_filt_butterworth.trc
DataRate	CameraRate	NumFrames	NumMarkers	Units	OrigDataRate	OrigDataStartFrame	OrigNumFrames
53.0	53.0	6	27	m	53.0	30	245
Frame#	Time	RHip			RKnee			RAnkle			RBigToe			RSmallToe			RHeel			LHip			LKnee			LAnkle			LBigToe			LSmallToe			LHeel			Neck			Head			Nose			RShoulder			RElbow			RWrist			RThumb			RIndex			RPinky			LShoulder			LElbow			LWrist			LThumb			LIndex			LPinky			
		X1	Y1	Z1	X2	Y2	Z2	X3	Y3	Z3	X4	Y4	Z4	X5	Y5	Z5	X6	Y6	Z6	X7	Y7	Z7	X8	Y8	Z8	X9	Y9	Z9	X10	Y10	Z10	X11	Y11	Z11	X12	Y12	Z12	X13	Y13	Z13	X14	Y14	Z14	X15	Y15	Z15	X16	Y16	Z16	X17	Y17	Z17	X18	Y18	Z18	X19	Y19	Z19	X20	Y20	Z20	X21	Y21	Z21	X22	Y22	Z22	X23	Y23	Z23	X24	Y24	Z24	X25	Y25	Z25	X26	Y26	Z26	X27	Y27	Z27	
30	0.5660377358490566	0.5824692788969922	0.49016962462726354	0.9613891711638748	0.5937982603818855	0.6506601481481206	1.3319989940582364	0.5972967759299638	0.7818222457668943	1.6745091719156613	0.5951605468446924	0.6887920179386072	1.7559897537233713	0.652477265395845	0.7048125146116362	1.7469634802975844	0.5739363438737165	0.8964653308632412	1.7245693659160888	0.3616923984493165	0.46689301392669996	0.9889857529544523	0.3873465033332861	0.666926266684089	1.3599733591868008	0.4075820860879612	0.8237105969612705	1.7109187915356234	0.4306029545694133	0.6662700477306482	1.766064855556138	0.3793800937449483	0.7178935905535558	1.7642194389628165	0.42865079586835453	0.8799993168823155	1.7467235887978965	0.4263190637925353	0.2760716866761347	0.44754302035454485	0.3957686777847105	0.13624475389045734	0.2370886119869669	0.42085855383207316	0.09810315548089585	0.37656441951285013	0.5694971210761269	0.31157060983646123	0.5182338255097807	0.6321846948324614	0.31825567675488076	0.7464120161008685	0.5267173171323918	0.2862007589504898	0.9586836626359673	0.46613445416335775	0.3614994892466771	1.0463858409354945	0.45965236734617937	0.3670203796172416	1.0632512701586012	0.4592561829005224	0.35105865765151384	1.0675657846431592	0.2612643352653335	0.2795202233384508	0.5396569364622823	0.2791905870028043	0.34432969582393946	0.7725978191091634	0.42267322241316335	0.29374005619011284	0.9722635606665756	0.5182724286931724	0.3102719996861134	1.0303436226531097	0.5142345878066658	0.330244704541058	1.058317064201573	0.46292745352005593	0.35633063411597315	1.0662625974497386
31	0.5849056603773585	0.5830547415686587	0.48673028329234547	0.9625451598632263	0.5937290511170467	0.6506145298960304	1.3320133517680874	0.5972937777157229	0.7817678620835256	1.674574456846107	0.5940220462152539	0.6846752672707629	1.7553742670629993	0.6523823338871129	0.7044087472813589	1.7470508833003262	0.5739472255733804	0.8964240188121955	1.7246033275466814	0.363723906718157	0.46160834983501653	0.9889711138643021	0.38727727059808414	0.6671765871471533	1.3599629332492464	0.40756619184451315	0.8237262471040295	1.7109566101483624	0.4306044929867363	0.6662393300674898	1.7660659288842127	0.37935785334633876	0.7179781509972628	1.7642438316964952	0.427092137893335	0.8849234641108366	1.747936318983402	0.4263162474256443	0.2760374023743094	0.44754959919176013	0.3957793823621769	0.13633616201529852	0.2370631351177519	0.4208632282647993	0.09810264772469622	0.3765433486635372	0.5695079600040948	0.3116259916245114	0.5182453447471471	0.6321581633427569	0.31827999835878645	0.7454074253619237	0.5268210644153648	0.2865405772965156	0.9586968671486109	0.4672377579854994	0.3620226038406986	1.0476205078523568	0.45968516290808714	0.36723112469219255	1.0635573917721795	0.46049245938163746	0.3477160637167742	1.0672934035314214	0.261144807991313	0.279769159318889	0.5396556715626932	0.27923513475304246	0.344284069910037	0.7725555518775595	0.4226069371725403	0.29398523479659244	0.9722083926738889	0.5182148776472701	0.3100847223439716	1.0327097597176957	0.514262995751425	0.33018347855323843	1.058326626845772	0.4629799548957968	0.3561492549746602	1.0664412872516138
32	0.6037735849056604	0.5831258506986412	0.4854500799160546	0.9627566465134783	0.5936364638278396	0.6506417900985627	1.332022447288793	0.5972884063063656	0.7817570453281857	1.6746317071112744	0.5925049271718565	0.6789880084660114	1.7544715129147692	0.6524954900583905	0.7042448297972681	1.7471694242967362	0.5739586094355682	0.8964153147095488	1.7246675386003938	0.3651791217587014	0.45784080692775536	0.9889405028189212	0.38776063735259225	0.665831726953585	1.359753457573169	0.40747167596587675	0.8237107661739196	1.710992474616048	0.4306094945500379	0.6662167346433131	1.7660707029682723	0.3793520155811364	0.7181316059785391	1.764294980039936	0.42476409023535794	0.8904529721931121	1.7492444671040017	0.4263146736857307	0.2760011280959922	0.4475578498955399	0.39581451455835626	0.13665230469318557	0.23696901833971762	0.42086622043654254	0.09809731886556278	0.37652083556025995	0.5694713902092949	0.311689622055467	0.5182529060294099	0.6320431484830575	0.3182432199775395	0.745313575909769	0.5266138093937375	0.2854307628819116	0.9586382635283464	0.46953404872526533	0.36299338367801265	1.0483386130363668	0.4597704264567545	0.3675236096099025	1.0646343059981411	0.46299218944301723	0.34226443326224915	1.066893040838007	0.2615073283880654	0.2787355896611947	0.5397963965363272	0.2792634228894244	0.34421106682385205	0.7724991381809819	0.4231973999739262	0.2934393913851951	0.9724186731330798	0.5182089145898864	0.3110334414680674	1.0344468282934733	0.5143783717556545	0.33018317442312506	1.0583608588986306	0.4629740901433729	0.35594948050013286	1.0664956452795462
33	0.6226415094339622	0.5830382233976246	0.48555193891203025	0.9625970542537585	0.5935879103070663	0.6507791638606342	1.3320208818876842	0.5972847848473062	0.7817918162985582	1.6746599061685732	0.5914506995265495	0.6749245225737541	1.7537584851323471	0.6527390460670468	0.7045272995544889	1.7471028573396548	0.5739669498445654	0.8964420293384049	1.7247294715723749	0.3656038979440537	0.4567199968832752	0.988915405032024	0.3892468119398352	0.6615866393430863	1.3594595490269406	0.4073928428413388	0.8236914329790299	1.71101356856183	0.43061192298011663	0.6661726283122761	1.7660654029453209	0.37936483564484014	0.7182760281213798	1.7643309718570328	0.4231268451574729	0.8926079613767813	1.7496614542255635	0.4263171279810351	0.2759758882378654	0.44756391803213946	0.39583357211646003	0.13690133247239622	0.2368934910279708	0.4208661753317371	0.09808006564300896	0.3765133385250003	0.5694360894502859	0.31172096914931363	0.5182588614041789	0.6318704047210316	0.31815151822683585	0.7462118510202251	0.5258192192365999	0.281680859475563	0.9583640521207638	0.47165927732638513	0.3641697060441035	1.049629185077647	0.45993799471167557	0.36791194719687365	1.0661432842477334	0.4663418950518432	0.33716274041620975	1.0665685193110106	0.2629650763193835	0.2752381075985858	0.5402200311358802	0.2792568721389363	0.34421223848518206	0.7727532174814573	0.4251324827495666	0.2910222222115421	0.9731546696103532	0.5179748035519457	0.31430433795983326	1.0353764153173974	0.5144821917080669	0.33024921750053843	1.0584433362338297	0.4629042046530279	0.35591276751826656	1.066459350899772
34	0.6415094339622641	0.5830604789967498	0.48614645000557727	0.9628402347554469	0.5936107064394786	0.6509126606101987	1.3320051817501994	0.597281685186443	0.781774868776254	1.6746582619192252	0.5912141872766359	0.6737795868113443	1.7534989271403603	0.6530200423818153	0.7051354338691372	1.7465213014307623	0.5739727860357119	0.8964228090853297	1.7247696773447434	0.36548820697879986	0.4569498897016037	0.9889304945055379	0.3912355049356358	0.6558904835498464	1.3595743406646703	0.40775820071157115	0.823844972920861	1.7109925516651678	0.43058586169305857	0.6660725117628992	1.7660334732773113	0.3793636673532582	0.7182784530238834	1.7643106153664991	0.4236597271280487	0.8924315521289174	1.7495756668933704	0.4263258620639615	0.2759599956362648	0.4475698221151653	0.3956563907523879	0.13598111715570194	0.23718233649104553	0.4208635114964716	0.09804652564181811	0.37653005679931006	0.5694226840944059	0.3116921662656551	0.5182678753564935	0.6318575599140513	0.318189697087982	0.7471451413859307	0.5246364531117695	0.2764976074902072	0.9579619515665327	0.47147531073712057	0.36525858098333974	1.0523577593510658	0.460125935658697	0.3685961416669784	1.0672559998476956	0.4694110924090182	0.3339364879578368	1.0664243805980405	0.2653724623500741	0.2703562906911713	0.54077720901448	0.2791856554887323	0.3444323281252083	0.7736666785533012	0.4277074578184818	0.2864935192703783	0.9742358322825844	0.5171861522459856	0.3190423581743535	1.0356799362361424	0.5141488417954301	0.33035661216678075	1.05853863068682	0.46281044716091213	0.3559114011426156	1.0663855066427848
35	0.660377358490566	0.5833027632574278	0.4870869006323123	0.9639172414500751	0.5935814646919463	0.6505000921473266	1.331977500257641	0.5972787349770882	0.7816600671562842	1.6746288948175287	0.5914264861965158	0.6742619324757565	1.753481993765313	0.6533258279943525	0.705337991826921	1.745600533770513	0.5739829859806512	0.8963171734968975	1.7247873471866206	0.36534083461041245	0.4572901133264906	0.9889635263125574	0.39260666258895566	0.6519703647575064	1.3601071825718243	0.40899524053550357	0.8243664720265725	1.7109000233515692	0.4305157720281688	0.6659345231842395	1.7659511914904735	0.37929694427996374	0.7181746275762608	1.764241126444353	0.42667979058228944	0.8936853463666774	1.7499994688600893	0.42633989275168827	0.2759565407467172	0.4475776101769012	0.39509519761386924	0.13284003049595794	0.23816841864954072	0.42085916704518095	0.0979986028174898	0.3765636743679317	0.5694234195945915	0.31161852556095115	0.5182858049904425	0.6322028948158566	0.3185169042622991	0.7475400974307693	0.5237698530273454	0.27303321031279926	0.9579185064478082	0.4686977768259195	0.3655574589089969	1.0555529911856245	0.46007328284365234	0.3695786662406216	1.0678289645100139	0.47106843793912684	0.3324096313709759	1.0665350129271962	0.26757696418753635	0.2670779643771156	0.541101881216943	0.2790381532232061	0.34490204510451705	0.7749770682915575	0.4288429120650045	0.2806390823386424	0.9751697987558661	0.515605621818468	0.32257536007148174	1.0358029134144788	0.512952541866575	0.33055453804256585	1.0586266709158516	0.46270916226929915	0.3557865947153555	1.0663457691293812
